<svg width="812" height="108" viewBox="0 0 812 108" fill="none" xmlns="http://www.w3.org/2000/svg">
<path d="M181.016 69C181.016 67.8438 180.844 66.8125 180.5 65.9062C180.156 64.9688 179.531 64.1094 178.625 63.3281C177.719 62.5469 176.438 61.7656 174.781 60.9844C173.125 60.1719 170.953 59.3438 168.266 58.5C165.203 57.5 162.281 56.375 159.5 55.125C156.75 53.8438 154.297 52.3594 152.141 50.6719C149.984 48.9844 148.281 47.0156 147.031 44.7656C145.812 42.5156 145.203 39.8906 145.203 36.8906C145.203 33.9844 145.844 31.3594 147.125 29.0156C148.406 26.6719 150.203 24.6719 152.516 23.0156C154.828 21.3281 157.547 20.0469 160.672 19.1719C163.797 18.2656 167.234 17.8125 170.984 17.8125C175.984 17.8125 180.375 18.7031 184.156 20.4844C187.969 22.2344 190.938 24.7031 193.062 27.8906C195.188 31.0469 196.25 34.7188 196.25 38.9062H181.062C181.062 37.0625 180.672 35.4375 179.891 34.0312C179.141 32.5938 177.984 31.4687 176.422 30.6562C174.891 29.8438 172.969 29.4375 170.656 29.4375C168.406 29.4375 166.516 29.7812 164.984 30.4688C163.484 31.125 162.344 32.0312 161.562 33.1875C160.812 34.3438 160.438 35.6094 160.438 36.9844C160.438 38.0781 160.719 39.0781 161.281 39.9844C161.875 40.8594 162.719 41.6875 163.812 42.4688C164.938 43.2188 166.312 43.9375 167.938 44.625C169.562 45.3125 171.422 45.9688 173.516 46.5938C177.172 47.75 180.406 49.0312 183.219 50.4375C186.062 51.8438 188.453 53.4375 190.391 55.2188C192.328 57 193.781 59.0156 194.75 61.2656C195.75 63.5156 196.25 66.0625 196.25 68.9062C196.25 71.9375 195.656 74.625 194.469 76.9688C193.312 79.3125 191.625 81.3125 189.406 82.9688C187.219 84.5938 184.594 85.8281 181.531 86.6719C178.469 87.5156 175.047 87.9375 171.266 87.9375C167.828 87.9375 164.438 87.5 161.094 86.625C157.75 85.7188 154.719 84.3438 152 82.5C149.312 80.6562 147.156 78.3125 145.531 75.4688C143.938 72.5938 143.141 69.1875 143.141 65.25H158.422C158.422 67.3125 158.719 69.0625 159.312 70.5C159.906 71.9062 160.75 73.0469 161.844 73.9219C162.969 74.7969 164.328 75.4219 165.922 75.7969C167.516 76.1719 169.297 76.3594 171.266 76.3594C173.547 76.3594 175.391 76.0469 176.797 75.4219C178.234 74.7656 179.297 73.875 179.984 72.75C180.672 71.625 181.016 70.375 181.016 69ZM218.493 72.8906L228.431 36.2812H237.665L234.524 52.5938L224.587 87H217.04L218.493 72.8906ZM213.946 36.2812L220.603 72.75L221.306 87H212.306L199.837 36.2812H213.946ZM246.665 72.0469L253.274 36.2812H267.384L255.009 87H246.009L246.665 72.0469ZM238.79 36.2812L248.821 72.7031L250.274 87H242.634L232.79 52.6406L229.79 36.2812H238.79ZM288.127 36.2812V87H273.455V36.2812H288.127ZM272.564 23.1562C272.564 21.0313 273.314 19.2969 274.814 17.9531C276.314 16.5781 278.283 15.8906 280.721 15.8906C283.158 15.8906 285.127 16.5781 286.627 17.9531C288.158 19.2969 288.924 21.0313 288.924 23.1562C288.924 25.25 288.158 26.9844 286.627 28.3594C285.127 29.7031 283.158 30.375 280.721 30.375C278.283 30.375 276.314 29.7031 274.814 28.3594C273.314 26.9844 272.564 25.25 272.564 23.1562ZM323.495 36.2812V46.5469H293.401V36.2812H323.495ZM300.292 23.7188H314.964V71.1094C314.964 72.5156 315.136 73.5938 315.479 74.3438C315.823 75.0938 316.386 75.625 317.167 75.9375C317.948 76.2188 318.948 76.3594 320.167 76.3594C321.042 76.3594 321.792 76.3281 322.417 76.2656C323.042 76.2031 323.62 76.125 324.151 76.0312V86.625C322.901 87.0312 321.573 87.3438 320.167 87.5625C318.761 87.8125 317.229 87.9375 315.573 87.9375C312.417 87.9375 309.682 87.4219 307.37 86.3906C305.089 85.3594 303.339 83.7344 302.12 81.5156C300.901 79.2656 300.292 76.3438 300.292 72.75V23.7188ZM350.754 76.5469C352.316 76.5469 353.676 76.25 354.832 75.6562C355.988 75.0625 356.879 74.2344 357.504 73.1719C358.16 72.0781 358.488 70.7656 358.488 69.2344H372.269C372.269 72.9219 371.316 76.1719 369.41 78.9844C367.535 81.7969 365.004 84 361.816 85.5938C358.629 87.1562 355.035 87.9375 351.035 87.9375C347.098 87.9375 343.66 87.2969 340.723 86.0156C337.785 84.7031 335.332 82.875 333.363 80.5312C331.394 78.1875 329.91 75.4688 328.91 72.375C327.941 69.25 327.457 65.875 327.457 62.25V61.0312C327.457 57.4375 327.941 54.0781 328.91 50.9531C329.91 47.8281 331.394 45.0938 333.363 42.75C335.332 40.4062 337.769 38.5938 340.676 37.3125C343.613 36 347.051 35.3438 350.988 35.3438C355.144 35.3438 358.816 36.1406 362.004 37.7344C365.223 39.3281 367.738 41.625 369.551 44.625C371.363 47.5938 372.269 51.1719 372.269 55.3594H358.488C358.488 53.7344 358.191 52.2812 357.598 51C357.035 49.6875 356.16 48.6562 354.973 47.9062C353.816 47.125 352.379 46.7344 350.66 46.7344C348.879 46.7344 347.41 47.125 346.254 47.9062C345.129 48.6562 344.269 49.7031 343.676 51.0469C343.082 52.3906 342.676 53.9219 342.457 55.6406C342.238 57.3281 342.129 59.125 342.129 61.0312V62.25C342.129 64.1875 342.238 66.0312 342.457 67.7812C342.676 69.5 343.082 71.0156 343.676 72.3281C344.301 73.6406 345.176 74.6719 346.301 75.4219C347.426 76.1719 348.91 76.5469 350.754 76.5469ZM392.872 15V87H378.247V15H392.872ZM390.95 59.8594L387.294 59.9531C387.294 56.3906 387.731 53.125 388.606 50.1562C389.512 47.1562 390.794 44.5469 392.45 42.3281C394.106 40.1094 396.091 38.3906 398.403 37.1719C400.747 35.9531 403.325 35.3438 406.137 35.3438C408.637 35.3438 410.919 35.7031 412.981 36.4219C415.044 37.1406 416.825 38.2812 418.325 39.8438C419.825 41.4062 420.981 43.4531 421.794 45.9844C422.606 48.5156 423.012 51.5938 423.012 55.2188V87H408.294V55.125C408.294 52.9688 407.981 51.2812 407.356 50.0625C406.762 48.8438 405.887 47.9844 404.731 47.4844C403.606 46.9844 402.231 46.7344 400.606 46.7344C398.7 46.7344 397.122 47.0781 395.872 47.7656C394.622 48.4219 393.637 49.3438 392.919 50.5312C392.2 51.7188 391.684 53.1094 391.372 54.7031C391.091 56.2969 390.95 58.0156 390.95 59.8594ZM431.662 15H446.287V74.9531L444.787 87H431.662V15ZM477.927 61.0781V62.0625C477.927 65.9062 477.521 69.4062 476.709 72.5625C475.927 75.7188 474.724 78.4531 473.099 80.7656C471.474 83.0469 469.427 84.8125 466.959 86.0625C464.49 87.3125 461.584 87.9375 458.24 87.9375C455.146 87.9375 452.49 87.2969 450.271 86.0156C448.052 84.7031 446.193 82.8906 444.693 80.5781C443.193 78.2656 441.974 75.5625 441.037 72.4688C440.131 69.375 439.427 66.0469 438.927 62.4844V60.7969C439.427 57.2344 440.131 53.9062 441.037 50.8125C441.974 47.7188 443.193 45.0156 444.693 42.7031C446.193 40.3906 448.037 38.5938 450.224 37.3125C452.443 36 455.084 35.3438 458.146 35.3438C461.521 35.3438 464.443 35.9844 466.912 37.2656C469.412 38.5469 471.474 40.3438 473.099 42.6562C474.724 44.9375 475.927 47.6562 476.709 50.8125C477.521 53.9375 477.927 57.3594 477.927 61.0781ZM463.302 62.0625V61.0781C463.302 59.1406 463.162 57.3125 462.881 55.5938C462.631 53.875 462.177 52.3594 461.521 51.0469C460.896 49.7031 460.006 48.6562 458.849 47.9062C457.724 47.125 456.271 46.7344 454.49 46.7344C452.74 46.7344 451.256 47.0312 450.037 47.625C448.818 48.2188 447.834 49.0625 447.084 50.1562C446.334 51.2188 445.787 52.5156 445.443 54.0469C445.099 55.5781 444.912 57.2812 444.881 59.1562V64.125C444.912 66.625 445.24 68.8125 445.865 70.6875C446.49 72.5625 447.506 74.0156 448.912 75.0469C450.318 76.0469 452.209 76.5469 454.584 76.5469C456.396 76.5469 457.865 76.2031 458.99 75.5156C460.146 74.7969 461.021 73.7969 461.615 72.5156C462.24 71.2344 462.677 69.7031 462.927 67.9219C463.177 66.1406 463.302 64.1875 463.302 62.0625ZM482.639 62.1562V61.1719C482.639 57.4531 483.171 54.0312 484.233 50.9062C485.296 47.75 486.858 45.0156 488.921 42.7031C490.983 40.3906 493.514 38.5938 496.514 37.3125C499.514 36 502.952 35.3438 506.827 35.3438C510.764 35.3438 514.233 36 517.233 37.3125C520.264 38.5938 522.811 40.3906 524.874 42.7031C526.936 45.0156 528.499 47.75 529.561 50.9062C530.624 54.0312 531.155 57.4531 531.155 61.1719V62.1562C531.155 65.8438 530.624 69.2656 529.561 72.4219C528.499 75.5469 526.936 78.2812 524.874 80.625C522.811 82.9375 520.28 84.7344 517.28 86.0156C514.28 87.2969 510.827 87.9375 506.921 87.9375C503.046 87.9375 499.592 87.2969 496.561 86.0156C493.53 84.7344 490.983 82.9375 488.921 80.625C486.858 78.2812 485.296 75.5469 484.233 72.4219C483.171 69.2656 482.639 65.8438 482.639 62.1562ZM497.311 61.1719V62.1562C497.311 64.1562 497.467 66.0312 497.78 67.7812C498.124 69.5312 498.671 71.0625 499.421 72.375C500.171 73.6875 501.155 74.7188 502.374 75.4688C503.624 76.1875 505.139 76.5469 506.921 76.5469C508.702 76.5469 510.202 76.1875 511.421 75.4688C512.639 74.7188 513.624 73.6875 514.374 72.375C515.124 71.0625 515.655 69.5312 515.967 67.7812C516.311 66.0312 516.483 64.1562 516.483 62.1562V61.1719C516.483 59.2031 516.311 57.3594 515.967 55.6406C515.655 53.8906 515.124 52.3438 514.374 51C513.624 49.6562 512.624 48.6094 511.374 47.8594C510.155 47.1094 508.639 46.7344 506.827 46.7344C505.077 46.7344 503.592 47.1094 502.374 47.8594C501.155 48.6094 500.171 49.6562 499.421 51C498.671 52.3438 498.124 53.8906 497.78 55.6406C497.467 57.3594 497.311 59.2031 497.311 61.1719ZM564.742 74.9062V53.1562C564.742 51.625 564.508 50.3125 564.039 49.2188C563.57 48.125 562.836 47.2656 561.836 46.6406C560.836 46.0156 559.539 45.7031 557.945 45.7031C556.601 45.7031 555.429 45.9375 554.429 46.4062C553.461 46.875 552.711 47.5469 552.179 48.4219C551.679 49.2969 551.429 50.375 551.429 51.6562H536.804C536.804 49.375 537.32 47.25 538.351 45.2812C539.383 43.3125 540.851 41.5781 542.758 40.0781C544.695 38.5781 547.008 37.4219 549.695 36.6094C552.383 35.7656 555.398 35.3438 558.742 35.3438C562.711 35.3438 566.242 36.0156 569.336 37.3594C572.461 38.6719 574.929 40.6562 576.742 43.3125C578.554 45.9375 579.461 49.25 579.461 53.25V74.4844C579.461 77.5469 579.633 79.9531 579.976 81.7031C580.351 83.4219 580.883 84.9219 581.57 86.2031V87H566.804C566.117 85.5312 565.601 83.7188 565.258 81.5625C564.914 79.375 564.742 77.1562 564.742 74.9062ZM566.57 56.0625L566.664 64.125H559.398C557.773 64.125 556.367 64.3281 555.179 64.7344C554.023 65.1406 553.086 65.7031 552.367 66.4219C551.648 67.1094 551.117 67.9219 550.773 68.8594C550.461 69.7656 550.304 70.7656 550.304 71.8594C550.304 72.8906 550.554 73.8281 551.054 74.6719C551.554 75.4844 552.242 76.125 553.117 76.5938C553.992 77.0625 555.008 77.2969 556.164 77.2969C558.07 77.2969 559.695 76.9219 561.039 76.1719C562.414 75.4219 563.476 74.5156 564.226 73.4531C564.976 72.3594 565.351 71.3438 565.351 70.4062L568.867 76.5C568.304 77.75 567.617 79.0469 566.804 80.3906C565.992 81.7031 564.961 82.9375 563.711 84.0938C562.461 85.2188 560.945 86.1406 559.164 86.8594C557.414 87.5781 555.304 87.9375 552.836 87.9375C549.648 87.9375 546.758 87.2969 544.164 86.0156C541.57 84.7031 539.492 82.9062 537.929 80.625C536.398 78.3438 535.633 75.7188 535.633 72.75C535.633 70.0938 536.117 67.7344 537.086 65.6719C538.054 63.6094 539.508 61.8594 541.445 60.4219C543.414 58.9844 545.883 57.9062 548.851 57.1875C551.82 56.4375 555.289 56.0625 559.258 56.0625H566.57ZM602.782 48.0938V87H588.157V36.2812H601.891L602.782 48.0938ZM617.922 35.9062L617.688 49.5469C617.063 49.4531 616.251 49.375 615.251 49.3125C614.251 49.2188 613.391 49.1719 612.672 49.1719C610.797 49.1719 609.172 49.4062 607.797 49.875C606.454 50.3125 605.329 50.9688 604.422 51.8438C603.547 52.7188 602.891 53.8125 602.454 55.125C602.016 56.4062 601.797 57.8906 601.797 59.5781L599.032 58.2188C599.032 54.875 599.36 51.8125 600.016 49.0312C600.672 46.25 601.626 43.8438 602.876 41.8125C604.126 39.75 605.657 38.1562 607.469 37.0312C609.282 35.9062 611.344 35.3438 613.657 35.3438C614.407 35.3438 615.172 35.3906 615.954 35.4844C616.735 35.5781 617.391 35.7188 617.922 35.9062ZM651.65 75.6562V15H666.369V87H653.15L651.65 75.6562ZM620.056 62.25V61.2656C620.056 57.4219 620.478 53.9219 621.322 50.7656C622.197 47.5781 623.462 44.8438 625.119 42.5625C626.806 40.25 628.884 38.4688 631.353 37.2188C633.822 35.9688 636.65 35.3438 639.837 35.3438C642.775 35.3438 645.337 36 647.525 37.3125C649.712 38.5938 651.572 40.4062 653.103 42.75C654.666 45.0625 655.931 47.7969 656.9 50.9531C657.869 54.0781 658.603 57.4688 659.103 61.125V62.8125C658.634 66.3125 657.9 69.5781 656.9 72.6094C655.931 75.6406 654.666 78.3125 653.103 80.625C651.572 82.9062 649.697 84.7031 647.478 86.0156C645.291 87.2969 642.712 87.9375 639.744 87.9375C636.556 87.9375 633.728 87.2969 631.259 86.0156C628.822 84.7344 626.775 82.9375 625.119 80.625C623.462 78.3125 622.197 75.5938 621.322 72.4688C620.478 69.3438 620.056 65.9375 620.056 62.25ZM634.681 61.2656V62.25C634.681 64.25 634.822 66.1094 635.103 67.8281C635.416 69.5469 635.916 71.0625 636.603 72.375C637.291 73.6875 638.197 74.7188 639.322 75.4688C640.447 76.1875 641.822 76.5469 643.447 76.5469C645.634 76.5469 647.431 76.0469 648.837 75.0469C650.244 74.0156 651.306 72.5938 652.025 70.7812C652.744 68.9688 653.119 66.8594 653.15 64.4531V59.5312C653.15 57.5312 652.947 55.7344 652.541 54.1406C652.134 52.5469 651.525 51.2031 650.712 50.1094C649.931 49.0156 648.947 48.1875 647.759 47.625C646.572 47.0312 645.166 46.7344 643.541 46.7344C641.947 46.7344 640.587 47.1094 639.462 47.8594C638.337 48.5781 637.416 49.5938 636.697 50.9062C636.009 52.2188 635.494 53.7656 635.15 55.5469C634.837 57.2969 634.681 59.2031 634.681 61.2656Z" fill="#111112"/>
<path d="M724.334 31.7344L706.709 87H690.397L715.662 18.75H725.975L724.334 31.7344ZM738.959 87L721.287 31.7344L719.459 18.75H729.912L755.272 87H738.959ZM738.209 61.5938V73.4062H702.631V61.5938H738.209ZM773.369 18.75V87H758.135V18.75H773.369Z" fill="#F0645B"/>
<g clip-path="url(#clip0_87_134)">
<path d="M83.25 0H24.75C11.081 0 0 11.081 0 24.75V83.25C0 96.919 11.081 108 24.75 108H83.25C96.919 108 108 96.919 108 83.25V24.75C108 11.081 96.919 0 83.25 0Z" fill="#101112"/>
<mask id="mask0_87_134" style="mask-type:alpha" maskUnits="userSpaceOnUse" x="-11" y="0" width="119" height="119">
<rect x="-11" y="59.9608" width="84" height="84" transform="rotate(-45.5466 -11 59.9608)" fill="#D9D9D9"/>
</mask>
<g mask="url(#mask0_87_134)">
<path d="M31.2832 81.8324L26.2864 76.93L44.9152 57.9424L44.6791 33.1948L38.3061 39.6906L33.3094 34.7883L48.0163 19.7981L63.0065 34.505L58.1042 39.5017L51.6085 33.1287L51.8729 60.8461L31.2832 81.8324ZM73.2833 74.0067L68.2865 69.1044L74.6595 62.6087L58.946 62.8823L58.8775 55.7055L74.5934 55.6793L68.0977 49.3063L73 44.3096L87.9902 59.0165L73.2833 74.0067Z" fill="#F0645B"/>
</g>
</g>
<defs>
<clipPath id="clip0_87_134">
<rect width="108" height="108" fill="white"/>
</clipPath>
</defs>
</svg>
